<svg width="40" height="40" viewBox="0 0 40 40" fill="none" xmlns="http://www.w3.org/2000/svg">
<rect x="0.5" y="0.5" width="39" height="39" rx="3.5" fill="white"/>
<path fill="#C127A0" d="M20.8516 25.0625H21.5547C21.7305 25.0625 21.9062 24.916 21.9062 24.7109V18.3828C21.9062 18.207 21.7305 18.0312 21.5547 18.0312H20.8516C20.6465 18.0312 20.5 18.207 20.5 18.3828V24.7109C20.5 24.916 20.6465 25.0625 20.8516 25.0625ZM25.6562 15.2188H23.2246L22.2285 13.5781C21.9941 13.168 21.5254 12.875 21.0273 12.875H18.0684C17.5703 12.875 17.1016 13.168 16.8672 13.5781L15.8711 15.2188H13.4688C13.2051 15.2188 13 15.4531 13 15.6875V16.1562C13 16.4199 13.2051 16.625 13.4688 16.625H13.9375V26.4688C13.9375 27.2598 14.5527 27.875 15.3438 27.875H23.7812C24.543 27.875 25.1875 27.2598 25.1875 26.4688V16.625H25.6562C25.8906 16.625 26.125 16.4199 26.125 16.1562V15.6875C26.125 15.4531 25.8906 15.2188 25.6562 15.2188ZM18.0098 14.3691C18.0391 14.3398 18.0977 14.2812 18.1562 14.2812C18.1562 14.2812 18.1562 14.2812 18.1855 14.2812H20.9395C20.998 14.2812 21.0566 14.3398 21.0859 14.3691L21.584 15.2188H17.5117L18.0098 14.3691ZM23.7812 26.4688H15.3438V16.625H23.7812V26.4688ZM17.5703 25.0625H18.2734C18.4492 25.0625 18.625 24.916 18.625 24.7109V18.3828C18.625 18.207 18.4492 18.0312 18.2734 18.0312H17.5703C17.3652 18.0312 17.2188 18.207 17.2188 18.3828V24.7109C17.2188 24.916 17.3652 25.0625 17.5703 25.0625Z" />
<rect stroke="#C127A0" x="0.5" y="0.5" width="39" height="39" rx="3.5" />
</svg>
