<svg width="40" height="40" viewBox="0 0 40 40" fill="none" xmlns="http://www.w3.org/2000/svg">
<rect x="0.5" y="0.5" width="39" height="39" rx="3.5" fill="white"/>
<path fill="#C127A0" d="M19.875 18.9688C19.084 18.9688 18.4688 19.6133 18.4688 20.375C18.4688 21.166 19.084 21.7812 19.875 21.7812C20.6367 21.7812 21.2812 21.166 21.2812 20.375C21.2812 19.6133 20.6367 18.9688 19.875 18.9688ZM18.4688 15.9219C18.4688 16.7129 19.084 17.3281 19.875 17.3281C20.6367 17.3281 21.2812 16.7129 21.2812 15.9219C21.2812 15.1602 20.6367 14.5156 19.875 14.5156C19.084 14.5156 18.4688 15.1602 18.4688 15.9219ZM18.4688 24.8281C18.4688 25.6191 19.084 26.2344 19.875 26.2344C20.6367 26.2344 21.2812 25.6191 21.2812 24.8281C21.2812 24.0664 20.6367 23.4219 19.875 23.4219C19.084 23.4219 18.4688 24.0664 18.4688 24.8281Z" />
<rect stroke="#C127A0" x="0.5" y="0.5" width="39" height="39" rx="3.5" />
</svg>
