<svg width="832" height="100" fill="none" xmlns="http://www.w3.org/2000/svg"><g clip-path="url(#a)"><g opacity=".15" clip-path="url(#b)"><path d="M368.303 10.778v99.946H224.721V10.778h143.582Zm1.74-1.738H222.981v103.422h147.062V9.04Z" fill="#fff"/><path d="M353.51 26.422H240.385v15.643H353.51V26.422Z" fill="#0071BC"/><path d="M352.639 27.29v13.906H241.255V27.291h111.384Zm1.741-1.737H239.514v17.382H354.38V25.553Z" fill="#fff"/><path d="M353.51 52.495H240.385v15.643H353.51V52.494Z" fill="#0071BC"/><path d="M352.639 53.364v13.905H241.255V53.364h111.384Zm1.741-1.739H239.514v17.382H354.38V51.625Z" fill="#fff"/><path d="M337.846 52.495h-1.74v15.643h1.74V52.494ZM349.159 59.447l-3.481 3.477-3.481-3.477h6.962Z" fill="#fff"/><path d="M316.961 95.08c-4.316 0-7.831-3.511-7.831-7.822 0-4.31 3.515-7.822 7.831-7.822h28.717c4.316 0 7.831 3.511 7.831 7.822 0 4.31-3.515 7.822-7.831 7.822h-28.717Z" fill="#0071BC"/><path d="M345.678 80.305c3.837 0 6.961 3.12 6.961 6.953s-3.124 6.953-6.961 6.953h-28.717c-3.837 0-6.961-3.12-6.961-6.953 0-3.832 3.124-6.953 6.961-6.953h28.717Zm0-1.738h-28.717c-4.803 0-8.701 3.894-8.701 8.691 0 4.798 3.898 8.691 8.701 8.691h28.717c4.803 0 8.702-3.893 8.702-8.69 0-4.798-3.899-8.692-8.702-8.692Z" fill="#fff"/><path d="M758.149 11.647H649.375v90.386h108.774V11.647Z" fill="#0071BC"/><path d="M757.279 12.516v88.648H650.245V12.516h107.034Zm1.74-1.738H648.505v92.124h110.514V10.778Z" fill="#fff"/><path d="M703.327 87.258c-4.316 0-7.832-3.51-7.832-7.822 0-4.31 3.516-7.821 7.832-7.821h28.716c4.316 0 7.832 3.51 7.832 7.821s-3.516 7.822-7.832 7.822h-28.716Z" fill="#0071BC"/><path d="M732.043 72.484c3.838 0 6.962 3.12 6.962 6.952 0 3.833-3.124 6.953-6.962 6.953h-28.716c-3.838 0-6.962-3.12-6.962-6.953 0-3.832 3.124-6.952 6.962-6.952h28.716Zm0-1.738h-28.716c-4.804 0-8.702 3.893-8.702 8.69 0 4.798 3.898 8.691 8.702 8.691h28.716c4.804 0 8.702-3.893 8.702-8.69 0-4.798-3.898-8.691-8.702-8.691Z" fill="#fff"/><g filter="url(#c)" fill="#fff"><path d="M693.711 30.915c.958 0 1.741.782 1.741 1.738s-.783 1.738-1.741 1.738h-26.036c-.957 0-1.74-.782-1.74-1.738s.783-1.738 1.74-1.738h26.036Zm0-1.738h-26.036a3.477 3.477 0 1 0 0 6.953h26.036a3.477 3.477 0 1 0 0-6.953ZM737.265 44.82c.957 0 1.74.783 1.74 1.739 0 .956-.783 1.738-1.74 1.738h-69.59c-.957 0-1.74-.782-1.74-1.738s.783-1.738 1.74-1.738h69.59Zm0-1.738h-69.59a3.477 3.477 0 1 0 0 6.953h69.59a3.477 3.477 0 1 0 0-6.953ZM737.265 58.726c.957 0 1.74.782 1.74 1.738s-.783 1.738-1.74 1.738h-69.59c-.957 0-1.74-.782-1.74-1.738s.783-1.738 1.74-1.738h69.59Zm0-1.738h-69.59a3.477 3.477 0 1 0 0 6.953h69.59a3.477 3.477 0 1 0 0-6.953Z"/></g><path d="M129.87-76.13v58.176c0 25.942 21.059 46.983 47.043 46.983h46.068M852.13-76.13V8.118c0 25.942-21.059 46.983-47.043 46.983h-46.068M368.738 87.258h2.611M376.613 87.258h4.943c6.135 0 11.112-4.971 11.112-11.098v-9.951c0-6.127 4.978-11.099 11.113-11.099h.174M406.591 55.102h2.611" stroke="#fff" stroke-width="2" stroke-linecap="round" stroke-linejoin="round"/><path d="M446.81 55.106 428.35 36.67l-18.459 18.436 18.459 18.436 18.46-18.436Z" fill="#0071BC" stroke="#fff" stroke-width="2" stroke-miterlimit="10"/><path d="M589.332-10.08H473.596v66.05h115.736v-66.05Z" stroke="#fff" stroke-width="2" stroke-miterlimit="10"/><g filter="url(#d)" fill="#fff"><path d="M556.221 6.58c.957 0 1.74.783 1.74 1.739 0 .956-.783 1.738-1.74 1.738h-26.036a1.745 1.745 0 0 1-1.741-1.738c0-.956.784-1.739 1.741-1.739h26.036Zm0-1.738h-26.036a3.478 3.478 0 0 0-3.481 3.477 3.478 3.478 0 0 0 3.481 3.476h26.036a3.478 3.478 0 0 0 3.481-3.476 3.478 3.478 0 0 0-3.481-3.477ZM573.668 20.486c.958 0 1.741.782 1.741 1.738s-.783 1.738-1.741 1.738h-43.483a1.745 1.745 0 0 1-1.741-1.738c0-.956.784-1.738 1.741-1.738h43.483Zm0-1.738h-43.483a3.478 3.478 0 0 0-3.481 3.476 3.478 3.478 0 0 0 3.481 3.477h43.483a3.477 3.477 0 1 0 0-6.953ZM573.668 34.391c.958 0 1.741.783 1.741 1.739 0 .956-.783 1.738-1.741 1.738h-43.483a1.745 1.745 0 0 1-1.741-1.738c0-.956.784-1.739 1.741-1.739h43.483Zm0-1.738h-43.483a3.478 3.478 0 0 0-3.481 3.477 3.478 3.478 0 0 0 3.481 3.476h43.483a3.477 3.477 0 1 0 0-6.953Z"/></g><path d="M517.584 7.667v17.816a2.973 2.973 0 0 1-2.976 2.973h-25.766a2.973 2.973 0 0 1-2.976-2.973V7.667a2.973 2.973 0 0 1 2.976-2.972h25.766a2.973 2.973 0 0 1 2.976 2.972Zm-1.984 0a.99.99 0 0 0-.992-.99h-25.766a.991.991 0 0 0-.992.99v17.816c0 .548.444.99.992.99h25.766a.99.99 0 0 0 .992-.99V7.667Zm-26.253 3.954a3.468 3.468 0 0 1 3.472-3.468 3.463 3.463 0 0 1 3.472 3.468 3.463 3.463 0 0 1-3.472 3.468 3.463 3.463 0 0 1-3.472-3.468Zm18.387-.06 5.447 5.44c.279.278.435.652.435 1.051v5.693c0 .409-.33.739-.739.739h-22.295a.738.738 0 0 1-.739-.739v-1.73c0-.408.165-.782.435-1.051l5.447-5.44a1.488 1.488 0 0 1 2.106 0l1.923 1.92 5.883-5.875a1.488 1.488 0 0 1 2.106 0l-.009-.009Zm-16.412.06c0 .817.67 1.486 1.488 1.486s1.488-.669 1.488-1.486-.67-1.486-1.488-1.486-1.488.67-1.488 1.486Zm20.31 6.64-4.951-4.945-6.935 6.927-2.977-2.973-4.951 4.945v.287h19.814v-4.25.009Z" fill="#fff"/><path d="M550.173 68.138h-76.577v66.051h76.577v-66.05Z" stroke="#fff" stroke-width="2" stroke-miterlimit="10"/><g filter="url(#e)"/><path d="M518.455 82.409v17.816a2.973 2.973 0 0 1-2.976 2.972h-25.767a2.972 2.972 0 0 1-2.976-2.972V82.409a2.973 2.973 0 0 1 2.976-2.973h25.767a2.973 2.973 0 0 1 2.976 2.973Zm-1.984 0a.991.991 0 0 0-.992-.991h-25.767a.991.991 0 0 0-.992.99v17.817c0 .548.444.991.992.991h25.767a.991.991 0 0 0 .992-.991V82.409Zm-26.254 3.954a3.468 3.468 0 0 1 3.472-3.468 3.463 3.463 0 0 1 3.472 3.468 3.463 3.463 0 0 1-3.472 3.468 3.463 3.463 0 0 1-3.472-3.468Zm18.387-.06 5.447 5.44c.279.278.436.651.436 1.051v5.693a.739.739 0 0 1-.74.739h-22.294a.739.739 0 0 1-.74-.74v-1.729c0-.408.165-.782.435-1.051l5.447-5.44a1.488 1.488 0 0 1 2.106 0l1.923 1.92 5.883-5.875a1.488 1.488 0 0 1 2.106 0l-.009-.009Zm-16.412.06c0 .817.67 1.486 1.488 1.486s1.488-.67 1.488-1.486c0-.817-.67-1.486-1.488-1.486s-1.488.67-1.488 1.486Zm20.31 6.64-4.951-4.945-6.935 6.926-2.976-2.972-4.952 4.945v.287h19.814v-4.25.009Z" fill="#fff"/><path d="M446.803 55.102h1.723c6.152 0 11.147-4.98 11.147-11.133V30.194c0-12.472 7.588-11.603 13.923-11.603v.148M428.346 73.535v12.993c0 9.204 7.466 16.661 16.682 16.661h27.698M550.173 101.207h52.064c7.536 0 13.636-6.101 13.636-13.619V75.847c0-10.499 8.519-19.007 19.031-19.007h13.601" stroke="#fff" stroke-width="2" stroke-linecap="round" stroke-linejoin="round"/></g></g><defs><filter id="c" x="644.195" y="9.177" width="116.551" height="74.764" filterUnits="userSpaceOnUse" color-interpolation-filters="sRGB"><feFlood flood-opacity="0" result="BackgroundImageFix"/><feColorMatrix in="SourceAlpha" values="0 0 0 0 0 0 0 0 0 0 0 0 0 0 0 0 0 0 127 0" result="hardAlpha"/><feOffset/><feGaussianBlur stdDeviation="10"/><feColorMatrix values="0 0 0 0 0 0 0 0 0 0 0 0 0 0 0 0 0 0 0.15 0"/><feBlend in2="BackgroundImageFix" result="effect1_dropShadow_817_2561"/><feBlend in="SourceGraphic" in2="effect1_dropShadow_817_2561" result="shape"/></filter><filter id="d" x="506.704" y="-15.158" width="90.445" height="74.764" filterUnits="userSpaceOnUse" color-interpolation-filters="sRGB"><feFlood flood-opacity="0" result="BackgroundImageFix"/><feColorMatrix in="SourceAlpha" values="0 0 0 0 0 0 0 0 0 0 0 0 0 0 0 0 0 0 127 0" result="hardAlpha"/><feOffset/><feGaussianBlur stdDeviation="10"/><feColorMatrix values="0 0 0 0 0 0 0 0 0 0 0 0 0 0 0 0 0 0 0.15 0"/><feBlend in2="BackgroundImageFix" result="effect1_dropShadow_817_2561"/><feBlend in="SourceGraphic" in2="effect1_dropShadow_817_2561" result="shape"/></filter><filter id="e" x="466.388" y="88.264" width="90.445" height="57.234" filterUnits="userSpaceOnUse" color-interpolation-filters="sRGB"><feFlood flood-opacity="0" result="BackgroundImageFix"/><feColorMatrix in="SourceAlpha" values="0 0 0 0 0 0 0 0 0 0 0 0 0 0 0 0 0 0 127 0" result="hardAlpha"/><feOffset/><feGaussianBlur stdDeviation="10"/><feColorMatrix values="0 0 0 0 0 0 0 0 0 0 0 0 0 0 0 0 0 0 0.15 0"/><feBlend in2="BackgroundImageFix" result="effect1_dropShadow_817_2561"/><feBlend in="SourceGraphic" in2="effect1_dropShadow_817_2561" result="shape"/></filter><clipPath id="a"><path fill="#fff" d="M0 0h832v100H0z"/></clipPath><clipPath id="b"><path fill="#fff" transform="translate(129 -77)" d="M0 0h724v239H0z"/></clipPath></defs></svg>
