<svg xmlns="http://www.w3.org/2000/svg" width="394" height="225" fill="none" viewBox="0 0 394 225">
  <path fill="#DCEEFF" d="M0 0h394v225H0z"/>
  <g filter="url(#filter0_d_794_5320)">
    <path fill="#fff" d="M48 21h282v34H48z"/>
    <rect width="136" height="6" x="102" y="35" fill="#EBEBEB" rx="3"/>
    <rect width="60" height="6" x="254" y="35" fill="#EBEBEB" rx="3"/>
    <g clip-path="url(#clip0_794_5320)">
      <path fill="#999" d="M70 28.9a9.09 9.09 0 1 0 0 18.19 9.09 9.09 0 0 0 0-18.18Zm3.39 11.48-.73.92a.59.59 0 0 1-.83.1l-2.45-1.83a1.47 1.47 0 0 1-.55-1.15v-5.7a.59.59 0 0 1 .58-.59h1.18a.59.59 0 0 1 .58.6V38l2.13 1.56a.59.59 0 0 1 .09.82Z"/>
    </g>
  </g>
  <g filter="url(#filter1_d_794_5320)">
    <path fill="#fff" d="M64 69h282v34H64z"/>
    <rect width="136" height="6" x="118" y="83" fill="#EBEBEB" rx="3"/>
    <rect width="60" height="6" x="270" y="83" fill="#EBEBEB" rx="3"/>
    <path fill="#999" d="M90.26 76h-8.75c-1.03 0-1.87.84-1.87 1.88v16.25c0 1.03.84 1.87 1.87 1.87h8.75c1.04 0 1.88-.84 1.88-1.88V77.88c0-1.03-.84-1.87-1.88-1.87Zm-2.5 17.66c0 .25-.21.47-.47.47h-2.81a.47.47 0 0 1-.47-.47v-.32c0-.25.21-.47.47-.47h2.81c.26 0 .47.22.47.47v.32Zm2.5-3.13c0 .26-.21.47-.47.47h-7.81a.47.47 0 0 1-.47-.47V78.34c0-.25.21-.47.47-.47h7.81c.26 0 .47.22.47.47v12.2Z"/>
  </g>
  <g filter="url(#filter2_d_794_5320)">
    <path fill="#fff" d="M48 117h282v34H48z"/>
    <rect width="136" height="6" x="102" y="131" fill="#EBEBEB" rx="3"/>
    <rect width="60" height="6" x="254" y="131" fill="#EBEBEB" rx="3"/>
    <g clip-path="url(#clip1_794_5320)">
      <path fill="#999" d="M68.73 142.6c-5.68-8.23-6.73-9.08-6.73-12.1a7.5 7.5 0 0 1 15 0c0 3.02-1.05 3.87-6.73 12.1a.94.94 0 0 1-1.54 0Zm.77-8.97a3.12 3.12 0 1 0 0-6.25 3.12 3.12 0 0 0 0 6.25Z"/>
    </g>
  </g>
  <g filter="url(#filter3_d_794_5320)">
    <path fill="#fff" d="M64 165h282v34H64z"/>
    <rect width="136" height="6" x="118" y="179" fill="#EBEBEB" rx="3"/>
    <rect width="60" height="6" x="270" y="179" fill="#EBEBEB" rx="3"/>
    <g clip-path="url(#clip2_794_5320)">
      <path fill="#999" d="M94.33 173H77.67c-.92 0-1.67.75-1.67 1.67v11.1c0 .93.75 1.67 1.67 1.67h6.66l-.55 1.67h-2.5a.83.83 0 1 0 0 1.67h9.44a.83.83 0 1 0 0-1.67h-2.5l-.55-1.67h6.66c.92 0 1.67-.74 1.67-1.66v-11.11c0-.92-.75-1.67-1.67-1.67Zm-.55 12.22H78.22v-10h15.56v10Z"/>
    </g>
  </g>
  <defs>
    <filter id="filter0_d_794_5320" width="314" height="66" x="32" y="13" color-interpolation-filters="sRGB" filterUnits="userSpaceOnUse">
      <feFlood flood-opacity="0" result="BackgroundImageFix"/>
      <feColorMatrix in="SourceAlpha" result="hardAlpha" values="0 0 0 0 0 0 0 0 0 0 0 0 0 0 0 0 0 0 127 0"/>
      <feOffset dy="8"/>
      <feGaussianBlur stdDeviation="8"/>
      <feComposite in2="hardAlpha" operator="out"/>
      <feColorMatrix values="0 0 0 0 0.0777057 0 0 0 0 0.181831 0 0 0 0 0.304065 0 0 0 0.1 0"/>
      <feBlend in2="BackgroundImageFix" result="effect1_dropShadow_794_5320"/>
      <feBlend in="SourceGraphic" in2="effect1_dropShadow_794_5320" result="shape"/>
    </filter>
    <filter id="filter1_d_794_5320" width="314" height="66" x="48" y="61" color-interpolation-filters="sRGB" filterUnits="userSpaceOnUse">
      <feFlood flood-opacity="0" result="BackgroundImageFix"/>
      <feColorMatrix in="SourceAlpha" result="hardAlpha" values="0 0 0 0 0 0 0 0 0 0 0 0 0 0 0 0 0 0 127 0"/>
      <feOffset dy="8"/>
      <feGaussianBlur stdDeviation="8"/>
      <feComposite in2="hardAlpha" operator="out"/>
      <feColorMatrix values="0 0 0 0 0.0777057 0 0 0 0 0.181831 0 0 0 0 0.304065 0 0 0 0.1 0"/>
      <feBlend in2="BackgroundImageFix" result="effect1_dropShadow_794_5320"/>
      <feBlend in="SourceGraphic" in2="effect1_dropShadow_794_5320" result="shape"/>
    </filter>
    <filter id="filter2_d_794_5320" width="314" height="66" x="32" y="109" color-interpolation-filters="sRGB" filterUnits="userSpaceOnUse">
      <feFlood flood-opacity="0" result="BackgroundImageFix"/>
      <feColorMatrix in="SourceAlpha" result="hardAlpha" values="0 0 0 0 0 0 0 0 0 0 0 0 0 0 0 0 0 0 127 0"/>
      <feOffset dy="8"/>
      <feGaussianBlur stdDeviation="8"/>
      <feComposite in2="hardAlpha" operator="out"/>
      <feColorMatrix values="0 0 0 0 0.0777057 0 0 0 0 0.181831 0 0 0 0 0.304065 0 0 0 0.1 0"/>
      <feBlend in2="BackgroundImageFix" result="effect1_dropShadow_794_5320"/>
      <feBlend in="SourceGraphic" in2="effect1_dropShadow_794_5320" result="shape"/>
    </filter>
    <filter id="filter3_d_794_5320" width="314" height="66" x="48" y="157" color-interpolation-filters="sRGB" filterUnits="userSpaceOnUse">
      <feFlood flood-opacity="0" result="BackgroundImageFix"/>
      <feColorMatrix in="SourceAlpha" result="hardAlpha" values="0 0 0 0 0 0 0 0 0 0 0 0 0 0 0 0 0 0 127 0"/>
      <feOffset dy="8"/>
      <feGaussianBlur stdDeviation="8"/>
      <feComposite in2="hardAlpha" operator="out"/>
      <feColorMatrix values="0 0 0 0 0.0777057 0 0 0 0 0.181831 0 0 0 0 0.304065 0 0 0 0.1 0"/>
      <feBlend in2="BackgroundImageFix" result="effect1_dropShadow_794_5320"/>
      <feBlend in="SourceGraphic" in2="effect1_dropShadow_794_5320" result="shape"/>
    </filter>
    <clipPath id="clip0_794_5320">
      <path fill="#fff" d="M60 28h20v20H60z"/>
    </clipPath>
    <clipPath id="clip1_794_5320">
      <path fill="#fff" d="M62 123h15v20H62z"/>
    </clipPath>
    <clipPath id="clip2_794_5320">
      <path fill="#fff" d="M76 173h20v17.78H76z"/>
    </clipPath>
  </defs>
</svg>
