<svg xmlns="http://www.w3.org/2000/svg" width="394" height="225" fill="none" viewBox="0 0 394 225">
  <path fill="#DCEEFF" d="M0 0h394v225H0z"/>
  <g filter="url(#filter0_d_794_5368)">
    <path fill="#fff" d="M68 26h258v173H68z"/>
    <path stroke="#EBEBEB" stroke-width="2" d="M198 42v141M84 112h226"/>
    <path fill="#EBEBEB" d="M140 121a12 12 0 0 1 10.61 6.39c4.11-1.38 8.65-.27 12.01 2.98a12.25 12.25 0 0 1 3 12.02 12 12 0 0 1 0 21.22c1.25 4.11.25 8.65-3 12.01a12.3 12.3 0 0 1-12 3 12 12 0 0 1-21.23 0 12 12 0 0 1-15-15 12 12 0 0 1 0-21.23 11.75 11.75 0 0 1 2.98-12.02 12 12 0 0 1 12.02-2.98A12 12 0 0 1 140 121Zm114-80 4.5 9.4 7.75-6.96.55 10.4 9.83-3.47-3.47 9.83 10.4.55-6.96 7.76L286 73l-9.4 4.5 6.96 7.75-10.4.55 3.47 9.83-9.83-3.47-.55 10.4-7.75-6.96-4.5 9.4-4.5-9.4-7.75 6.96-.55-10.4-9.83 3.47 3.47-9.83-10.4-.55 6.96-7.76L222 73l9.4-4.5-6.96-7.75 10.4-.55-3.47-9.83 9.83 3.47.55-10.4 7.75 6.96L254 41Zm-114 1 31 31-31 31-31-31 31-31Zm102 81-18 18 12 12-12 12 18 18 12-12 12 12 18-18-12-12 12-12-18-18-12 12-12-12Z"/>
    <path fill="#999" d="M140 73a5 5 0 1 0 0-10 5 5 0 0 0 0 10Zm3.5 1.25h-.65a6.81 6.81 0 0 1-5.7 0h-.65a5.25 5.25 0 0 0-5.25 5.25v1.63c0 1.03.84 1.87 1.88 1.87h13.75c1.03 0 1.87-.84 1.87-1.88V79.5c0-2.9-2.35-5.25-5.25-5.25ZM254 73a5 5 0 1 0 0-10 5 5 0 0 0 0 10Zm3.5 1.25h-.65a6.81 6.81 0 0 1-5.7 0h-.65a5.25 5.25 0 0 0-5.25 5.25v1.63c0 1.03.84 1.87 1.88 1.87h13.75c1.03 0 1.87-.84 1.87-1.88V79.5c0-2.9-2.35-5.25-5.25-5.25ZM254 153a5 5 0 1 0 0-10 5 5 0 0 0 0 10Zm3.5 1.25h-.65a6.82 6.82 0 0 1-5.7 0h-.65a5.25 5.25 0 0 0-5.25 5.25v1.63c0 1.03.84 1.87 1.88 1.87h13.75c1.03 0 1.87-.84 1.87-1.88v-1.62c0-2.9-2.35-5.25-5.25-5.25ZM140 153a5 5 0 1 0 0-10 5 5 0 0 0 0 10Zm3.5 1.25h-.65a6.82 6.82 0 0 1-5.7 0h-.65a5.25 5.25 0 0 0-5.25 5.25v1.63c0 1.03.84 1.87 1.88 1.87h13.75c1.03 0 1.87-.84 1.87-1.88v-1.62c0-2.9-2.35-5.25-5.25-5.25Z"/>
  </g>
  <defs>
    <filter id="filter0_d_794_5368" width="290" height="205" x="52" y="18" color-interpolation-filters="sRGB" filterUnits="userSpaceOnUse">
      <feFlood flood-opacity="0" result="BackgroundImageFix"/>
      <feColorMatrix in="SourceAlpha" result="hardAlpha" values="0 0 0 0 0 0 0 0 0 0 0 0 0 0 0 0 0 0 127 0"/>
      <feOffset dy="8"/>
      <feGaussianBlur stdDeviation="8"/>
      <feComposite in2="hardAlpha" operator="out"/>
      <feColorMatrix values="0 0 0 0 0.0777057 0 0 0 0 0.181831 0 0 0 0 0.304065 0 0 0 0.1 0"/>
      <feBlend in2="BackgroundImageFix" result="effect1_dropShadow_794_5368"/>
      <feBlend in="SourceGraphic" in2="effect1_dropShadow_794_5368" result="shape"/>
    </filter>
  </defs>
</svg>
