<svg xmlns="http://www.w3.org/2000/svg" width="394" height="225" fill="none" viewBox="0 0 394 225">
  <path fill="#DCEEFF" d="M0 0h394v225H0z"/>
  <g filter="url(#filter0_d_794_5345)">
    <path fill="#fff" d="M43 26h230v80H43z"/>
    <circle cx="85" cy="66" r="28" fill="#FAF9F9"/>
    <path fill="#999" d="M85 65a8 8 0 1 0 0-16 8 8 0 0 0 0 16Zm5.99 2.04L88 79l-2-8.5 2-3.5h-6l2 3.5-2 8.5-2.99-11.96A8.39 8.39 0 0 0 71 75.4V78a3 3 0 0 0 3 3h22a3 3 0 0 0 3-3v-2.6c0-4.5-3.56-8.15-8.01-8.36Z"/>
    <g clip-path="url(#clip0_794_5345)">
      <path fill="#999" d="m140.56 74.58-2.43-.57a.57.57 0 0 0-.65.33l-1.12 2.62c-.1.23-.04.5.16.66l1.42 1.16a8.69 8.69 0 0 1-4.15 4.16l-1.17-1.42a.56.56 0 0 0-.65-.17l-2.63 1.13a.57.57 0 0 0-.33.65l.57 2.43c.05.26.28.44.54.44 6 0 10.88-4.86 10.88-10.88a.56.56 0 0 0-.44-.54Z"/>
    </g>
    <path fill="#999" d="M164.77 78.47c.1-.07.23 0 .23.11v4.8c0 .62-.5 1.12-1.13 1.12h-9.75c-.62 0-1.12-.5-1.12-1.13v-4.79c0-.11.13-.18.23-.1.52.4 1.22.92 3.6 2.66.5.36 1.34 1.12 2.17 1.11.84 0 1.69-.77 2.16-1.11a146.7 146.7 0 0 0 3.61-2.67ZM159 81.5c.54 0 1.33-.68 1.72-.97a90.6 90.6 0 0 0 4.06-3.02c.14-.1.22-.27.22-.44v-.44c0-.63-.5-1.13-1.13-1.13h-9.75c-.62 0-1.12.5-1.12 1.13v.44c0 .17.08.34.22.44.71.56.95.76 4.06 3.02.4.29 1.18.98 1.72.97Z"/>
    <rect width="118" height="6" x="129" y="47" fill="#EBEBEB" rx="3"/>
    <rect width="62" height="6" x="129" y="60" fill="#EBEBEB" rx="3"/>
  </g>
  <g filter="url(#filter1_d_794_5345)">
    <path fill="#fff" d="M121 120h230v80H121z"/>
    <circle cx="163" cy="160" r="28" fill="#FAF9F9"/>
    <path fill="#999" d="M176.4 149.11a1.13 1.13 0 0 0-1.37.33c-.02.03-2.8 3.85-12.03 3.85-9.18 0-11.97-3.78-12.03-3.85a1.12 1.12 0 0 0-1.37-.34.98.98 0 0 0-.54 1.22c.02.06 1.54 4.12 5.94 6.67v.01a8 8 0 1 0 16 0v-.01c4.4-2.55 5.92-6.62 5.95-6.67a.98.98 0 0 0-.55-1.2ZM168.6 167h-1.04a10.87 10.87 0 0 1-9.12 0h-1.04a8.36 8.36 0 0 0-7.8 5.36c-.5 1.28.53 2.64 1.9 2.64h23c1.37 0 2.4-1.36 1.9-2.64a8.36 8.36 0 0 0-7.8-5.36Zm1.8-16.9c-.69-3.1-1.97-7.1-4.02-7.1a2.8 2.8 0 0 0-1.7.65 2.65 2.65 0 0 1-3.26 0 2.8 2.8 0 0 0-1.7-.65c-2.06 0-3.35 4.03-4.04 7.13a20.5 20.5 0 0 0 7.32 1.16c3.39 0 5.77-.56 7.4-1.2Z"/>
    <g clip-path="url(#clip1_794_5345)">
      <path fill="#999" d="m218.56 168.58-2.43-.57a.57.57 0 0 0-.65.33l-1.12 2.63c-.1.22-.04.5.16.65l1.42 1.16a8.7 8.7 0 0 1-4.15 4.16l-1.17-1.42a.56.56 0 0 0-.65-.17l-2.63 1.13a.57.57 0 0 0-.33.65l.57 2.43c.05.26.28.44.54.44 6 0 10.88-4.86 10.88-10.88a.56.56 0 0 0-.44-.54Z"/>
    </g>
    <path fill="#999" d="M242.77 172.47c.1-.07.23 0 .23.11v4.8c0 .62-.5 1.12-1.13 1.12h-9.75c-.62 0-1.12-.5-1.12-1.13v-4.79c0-.11.13-.18.23-.1.52.4 1.22.92 3.6 2.66.5.36 1.34 1.12 2.17 1.11.84 0 1.69-.77 2.16-1.11a146.7 146.7 0 0 0 3.61-2.67ZM237 175.5c.54 0 1.33-.68 1.72-.97a90.6 90.6 0 0 0 4.06-3.02c.14-.1.22-.27.22-.44v-.44c0-.63-.5-1.13-1.13-1.13h-9.75c-.62 0-1.12.5-1.12 1.13v.44c0 .17.08.34.22.44.71.56.95.76 4.06 3.02.4.29 1.18.98 1.72.97Z"/>
    <rect width="118" height="6" x="207" y="141" fill="#EBEBEB" rx="3"/>
    <rect width="85" height="6" x="207" y="154" fill="#EBEBEB" rx="3"/>
  </g>
  <defs>
    <clipPath id="clip0_794_5345">
      <path fill="#fff" d="M129 74h12v12h-12z"/>
    </clipPath>
    <clipPath id="clip1_794_5345">
      <path fill="#fff" d="M207 168h12v12h-12z"/>
    </clipPath>
    <filter id="filter0_d_794_5345" width="262" height="112" x="27" y="18" color-interpolation-filters="sRGB" filterUnits="userSpaceOnUse">
      <feFlood flood-opacity="0" result="BackgroundImageFix"/>
      <feColorMatrix in="SourceAlpha" result="hardAlpha" values="0 0 0 0 0 0 0 0 0 0 0 0 0 0 0 0 0 0 127 0"/>
      <feOffset dy="8"/>
      <feGaussianBlur stdDeviation="8"/>
      <feComposite in2="hardAlpha" operator="out"/>
      <feColorMatrix values="0 0 0 0 0.0777057 0 0 0 0 0.181831 0 0 0 0 0.304065 0 0 0 0.1 0"/>
      <feBlend in2="BackgroundImageFix" result="effect1_dropShadow_794_5345"/>
      <feBlend in="SourceGraphic" in2="effect1_dropShadow_794_5345" result="shape"/>
    </filter>
    <filter id="filter1_d_794_5345" width="262" height="112" x="105" y="112" color-interpolation-filters="sRGB" filterUnits="userSpaceOnUse">
      <feFlood flood-opacity="0" result="BackgroundImageFix"/>
      <feColorMatrix in="SourceAlpha" result="hardAlpha" values="0 0 0 0 0 0 0 0 0 0 0 0 0 0 0 0 0 0 127 0"/>
      <feOffset dy="8"/>
      <feGaussianBlur stdDeviation="8"/>
      <feComposite in2="hardAlpha" operator="out"/>
      <feColorMatrix values="0 0 0 0 0.0777057 0 0 0 0 0.181831 0 0 0 0 0.304065 0 0 0 0.1 0"/>
      <feBlend in2="BackgroundImageFix" result="effect1_dropShadow_794_5345"/>
      <feBlend in="SourceGraphic" in2="effect1_dropShadow_794_5345" result="shape"/>
    </filter>
  </defs>
</svg>
