<svg xmlns="http://www.w3.org/2000/svg" width="394" height="225" fill="none" viewBox="0 0 394 225">
  <path fill="#DCEEFF" d="M0 0h394v225H0z"/>
  <g filter="url(#filter0_d_1064_6869)">
    <path fill="#fff" d="M54 26h290v173H54z"/>
    <path stroke="#EBEBEB" stroke-dasharray="8 8" stroke-width="2" d="M51 82h290M51 141h290"/>
    <path fill="#999" d="M188 115a6 6 0 1 0 0-12 6 6 0 0 0 0 12Zm4.2 1.5h-.78a8.17 8.17 0 0 1-6.84 0h-.78a6.3 6.3 0 0 0-6.3 6.3v1.95c0 1.24 1 2.25 2.25 2.25h16.5c1.24 0 2.25-1 2.25-2.25v-1.95a6.3 6.3 0 0 0-6.3-6.3Z"/>
    <rect width="22" height="22" x="196" y="96" fill="#EBEBEB" rx="4"/>
    <path fill="#767676" d="M198.88 112v-1.56l2.87-2.67c1.35-1.24 1.7-1.7 1.7-2.26v-.02c0-.69-.46-1.14-1.23-1.14-.8 0-1.34.53-1.34 1.29v.04h-2.14v-.03c0-1.83 1.43-3.06 3.57-3.06 2.04 0 3.4 1.09 3.4 2.71v.03c0 1.04-.58 1.95-2.26 3.41l-1.48 1.3v.14h3.87V112h-6.96Zm12.5.25c-2.37 0-3.97-1.68-3.97-4.78v-.02c0-3.03 1.53-4.85 3.94-4.85 1.9 0 3.3 1.12 3.57 2.6v.05h-2.25l-.02-.05c-.19-.47-.65-.8-1.29-.8-1.15 0-1.67 1.13-1.74 2.66l-.01.2h.13c.33-.68 1.04-1.3 2.33-1.3a2.83 2.83 0 0 1 2.97 2.97v.02c0 1.89-1.49 3.3-3.66 3.3ZM209.9 109c0 .83.64 1.46 1.45 1.46.8 0 1.45-.63 1.45-1.42v-.02c0-.83-.6-1.42-1.44-1.42-.82 0-1.46.57-1.46 1.39Z"/>
    <path fill="#999" d="M246 115a6 6 0 1 0 0-12 6 6 0 0 0 0 12Zm4.2 1.5h-.78a8.17 8.17 0 0 1-6.84 0h-.78a6.3 6.3 0 0 0-6.3 6.3v1.95c0 1.24 1 2.25 2.25 2.25h16.5c1.24 0 2.25-1 2.25-2.25v-1.95a6.3 6.3 0 0 0-6.3-6.3Z"/>
    <rect width="22" height="22" x="254" y="96" fill="#EBEBEB" rx="4"/>
    <path fill="#767676" d="M256.88 112v-1.56l2.87-2.67c1.35-1.24 1.7-1.7 1.7-2.26v-.02c0-.69-.46-1.14-1.24-1.14s-1.33.53-1.33 1.29v.04h-2.14v-.03c0-1.83 1.43-3.06 3.57-3.06 2.04 0 3.4 1.09 3.4 2.71v.03c0 1.04-.57 1.95-2.26 3.41l-1.48 1.3v.14h3.87V112h-6.96Zm12.35.25c-2.1 0-3.44-1.2-3.53-2.77v-.1h2.07l.01.04c.15.56.7 1.02 1.45 1.02.86 0 1.46-.6 1.46-1.45v-.01c0-.85-.61-1.43-1.46-1.43a1.57 1.57 0 0 0-1.4.8h-2l.4-5.51h6.06v1.79h-4.25l-.19 2.36h.12c.35-.62 1.05-1.03 1.96-1.03 1.7 0 2.93 1.24 2.93 2.97v.02c0 1.97-1.48 3.3-3.63 3.3Z"/>
    <path fill="#999" d="M130 115a6 6 0 1 0 0-12 6 6 0 0 0 0 12Zm4.2 1.5h-.78a8.17 8.17 0 0 1-6.84 0h-.78a6.3 6.3 0 0 0-6.3 6.3v1.95c0 1.24 1 2.25 2.25 2.25h16.5c1.24 0 2.25-1 2.25-2.25v-1.95a6.3 6.3 0 0 0-6.3-6.3Z"/>
    <rect width="22" height="22" x="138" y="96" fill="#EBEBEB" rx="4"/>
    <path fill="#767676" d="M141.88 112v-1.56l2.87-2.67c1.35-1.24 1.7-1.7 1.7-2.26v-.02c0-.69-.46-1.14-1.23-1.14-.8 0-1.34.53-1.34 1.29v.04h-2.14v-.03c0-1.83 1.43-3.06 3.57-3.06 2.04 0 3.4 1.09 3.4 2.71v.03c0 1.04-.58 1.95-2.26 3.41l-1.48 1.3v.14h3.87V112h-6.96Zm10.87 0v-7.06h-.12l-2.21 1.5v-2.01l2.33-1.59h2.32V112h-2.32Z"/>
    <path fill="#999" d="M159 172a6 6 0 1 0 0-12 6 6 0 0 0 0 12Zm4.2 1.5h-.78a8.17 8.17 0 0 1-6.84 0h-.78a6.3 6.3 0 0 0-6.3 6.3v1.95c0 1.24 1 2.25 2.25 2.25h16.5c1.24 0 2.25-1 2.25-2.25v-1.95a6.3 6.3 0 0 0-6.3-6.3Z"/>
    <rect width="22" height="22" x="167" y="153" fill="#EBEBEB" rx="4"/>
    <path fill="#767676" d="M177.96 169.23c-2.17 0-3.6-1.14-3.74-2.88v-.08h2.22l.01.07c.08.61.64 1.06 1.5 1.06.87 0 1.4-.48 1.4-1.16 0-.74-.56-1.15-1.58-1.15h-.99v-1.58h.98c.9 0 1.44-.43 1.44-1.07v-.02c0-.66-.47-1.07-1.26-1.07-.8 0-1.32.43-1.39 1.1v.07h-2.12v-.09c.13-1.71 1.48-2.82 3.51-2.82 2.1 0 3.43 1 3.43 2.5 0 1.16-.86 1.89-1.9 2.1v.04c1.37.14 2.26.9 2.26 2.12 0 1.75-1.47 2.86-3.77 2.86Z"/>
    <path fill="#999" d="M217 172a6 6 0 1 0 0-12 6 6 0 0 0 0 12Zm4.2 1.5h-.78a8.17 8.17 0 0 1-6.84 0h-.78a6.3 6.3 0 0 0-6.3 6.3v1.95c0 1.24 1 2.25 2.25 2.25h16.5c1.24 0 2.25-1 2.25-2.25v-1.95a6.3 6.3 0 0 0-6.3-6.3Z"/>
    <rect width="22" height="22" x="225" y="153" fill="#EBEBEB" rx="4"/>
    <path fill="#767676" d="M235.7 169.23c-2.34 0-3.93-1.1-3.93-2.71v-.02c0-1.23.95-2.08 2.23-2.3v-.05c-1.1-.24-1.89-1.02-1.89-2.03v-.01c0-1.45 1.46-2.5 3.59-2.5 2.12 0 3.59 1.05 3.59 2.5 0 1.02-.79 1.8-1.9 2.04v.04c1.3.23 2.24 1.08 2.24 2.31v.02c0 1.61-1.59 2.7-3.93 2.7Zm0-5.74c.76 0 1.3-.47 1.3-1.14v-.01c0-.68-.55-1.13-1.3-1.13s-1.3.45-1.3 1.13c0 .68.54 1.15 1.3 1.15Zm0 4.14c.87 0 1.48-.53 1.48-1.27v-.01c0-.73-.6-1.27-1.48-1.27s-1.48.54-1.48 1.27c0 .75.6 1.28 1.48 1.28Z"/>
    <path fill="#999" d="M275 172a6 6 0 1 0 0-12 6 6 0 0 0 0 12Zm4.2 1.5h-.78a8.17 8.17 0 0 1-6.84 0h-.78a6.3 6.3 0 0 0-6.3 6.3v1.95c0 1.24 1 2.25 2.25 2.25h16.5c1.24 0 2.25-1 2.25-2.25v-1.95a6.3 6.3 0 0 0-6.3-6.3Z"/>
    <rect width="22" height="22" x="283" y="153" fill="#EBEBEB" rx="4"/>
    <path fill="#767676" d="M289.12 169v-7.06H289l-2.21 1.5v-2.01l2.33-1.59h2.32V169h-2.32Zm4.74 0v-1.56l2.87-2.67c1.35-1.24 1.7-1.7 1.7-2.26v-.02c0-.69-.46-1.14-1.23-1.14-.79 0-1.34.53-1.34 1.29v.04h-2.13v-.03c0-1.83 1.42-3.06 3.56-3.06 2.04 0 3.4 1.09 3.4 2.71v.03c0 1.04-.57 1.95-2.25 3.41l-1.49 1.3v.15h3.87V169h-6.96Z"/>
    <path fill="#999" d="M101 172a6 6 0 1 0 0-12 6 6 0 0 0 0 12Zm4.2 1.5h-.78a8.17 8.17 0 0 1-6.84 0h-.78a6.3 6.3 0 0 0-6.3 6.3v1.95c0 1.24 1 2.25 2.25 2.25h16.5c1.24 0 2.25-1 2.25-2.25v-1.95a6.3 6.3 0 0 0-6.3-6.3Z"/>
    <rect width="22" height="22" x="109" y="153" fill="#EBEBEB" rx="4"/>
    <path fill="#767676" d="M114.62 169v-7.06h-.12l-2.21 1.5v-2.01l2.33-1.59h2.32V169h-2.32Zm8.56.23c-2.34 0-3.92-1.1-3.92-2.71v-.02c0-1.23.94-2.08 2.22-2.3v-.05c-1.1-.24-1.89-1.02-1.89-2.03v-.01c0-1.45 1.46-2.5 3.59-2.5s3.6 1.05 3.6 2.5c0 1.02-.8 1.8-1.9 2.04v.04c1.28.23 2.23 1.08 2.23 2.31v.02c0 1.61-1.59 2.7-3.93 2.7Zm0-5.74c.76 0 1.3-.47 1.3-1.14v-.01c0-.68-.55-1.13-1.3-1.13s-1.29.45-1.29 1.13c0 .68.53 1.15 1.29 1.15Zm0 4.14c.87 0 1.48-.53 1.48-1.27v-.01c0-.73-.6-1.27-1.48-1.27s-1.48.54-1.48 1.27c0 .75.61 1.28 1.48 1.28Z"/>
    <path fill="#999" d="M159 56a6 6 0 1 0 0-12 6 6 0 0 0 0 12Zm4.2 1.5h-.78a8.17 8.17 0 0 1-6.84 0h-.78a6.3 6.3 0 0 0-6.3 6.3v1.95c0 1.24 1 2.25 2.25 2.25h16.5c1.24 0 2.25-1 2.25-2.25V63.8a6.3 6.3 0 0 0-6.3-6.3Z"/>
    <rect width="22" height="22" x="167" y="37" fill="#EBEBEB" rx="4"/>
    <path fill="#767676" d="M173.65 53v-1.56h-4.5v-1.76a99.73 99.73 0 0 1 3.47-5.84h3.24v5.78H177v1.82h-1.14V53h-2.2Zm-2.48-3.3h2.54v-4.2h-.11a61.59 61.59 0 0 0-2.43 4.1v.1Zm11.71 3.3v-1.56h-4.5v-1.76a99.73 99.73 0 0 1 3.47-5.84h3.24v5.78h1.14v1.82h-1.14V53h-2.2Zm-2.48-3.3h2.54v-4.2h-.11a61.16 61.16 0 0 0-2.43 4.1v.1Z"/>
    <path fill="#999" d="M217 56a6 6 0 1 0 0-12 6 6 0 0 0 0 12Zm4.2 1.5h-.78a8.17 8.17 0 0 1-6.84 0h-.78a6.3 6.3 0 0 0-6.3 6.3v1.95c0 1.24 1 2.25 2.25 2.25h16.5c1.24 0 2.25-1 2.25-2.25V63.8a6.3 6.3 0 0 0-6.3-6.3Z"/>
    <rect width="22" height="22" x="225" y="37" fill="#EBEBEB" rx="4"/>
    <path fill="#767676" d="M230.96 53.23c-2.17 0-3.6-1.14-3.74-2.88v-.08h2.22l.01.07c.08.61.64 1.06 1.5 1.06.87 0 1.4-.48 1.4-1.15v-.02c0-.73-.56-1.14-1.58-1.14h-.99v-1.58h.98c.9 0 1.44-.43 1.44-1.07v-.02c0-.66-.47-1.08-1.26-1.08-.8 0-1.32.44-1.39 1.12v.06h-2.12v-.09c.13-1.71 1.48-2.82 3.51-2.82 2.1 0 3.43 1 3.43 2.5 0 1.16-.86 1.89-1.9 2.1v.04c1.37.14 2.26.9 2.26 2.12 0 1.75-1.47 2.86-3.77 2.86Zm9.17.02c-2.36 0-3.96-1.68-3.96-4.78v-.01c0-3.04 1.52-4.86 3.93-4.86 1.9 0 3.3 1.12 3.57 2.6l.01.05h-2.26l-.02-.05c-.19-.47-.64-.8-1.28-.8-1.15 0-1.68 1.13-1.75 2.66v.2h.13c.33-.68 1.04-1.3 2.32-1.3a2.83 2.83 0 0 1 2.98 2.97v.02c0 1.89-1.5 3.3-3.67 3.3ZM238.66 50c0 .83.64 1.46 1.46 1.46.8 0 1.45-.62 1.45-1.42v-.02a1.4 1.4 0 0 0-1.45-1.43c-.82 0-1.46.58-1.46 1.4Z"/>
  </g>
  <defs>
    <filter id="filter0_d_1064_6869" width="325" height="205" x="35" y="18" color-interpolation-filters="sRGB" filterUnits="userSpaceOnUse">
      <feFlood flood-opacity="0" result="BackgroundImageFix"/>
      <feColorMatrix in="SourceAlpha" result="hardAlpha" values="0 0 0 0 0 0 0 0 0 0 0 0 0 0 0 0 0 0 127 0"/>
      <feOffset dy="8"/>
      <feGaussianBlur stdDeviation="8"/>
      <feComposite in2="hardAlpha" operator="out"/>
      <feColorMatrix values="0 0 0 0 0.0777057 0 0 0 0 0.181831 0 0 0 0 0.304065 0 0 0 0.1 0"/>
      <feBlend in2="BackgroundImageFix" result="effect1_dropShadow_1064_6869"/>
      <feBlend in="SourceGraphic" in2="effect1_dropShadow_1064_6869" result="shape"/>
    </filter>
  </defs>
</svg>
