<svg xmlns="http://www.w3.org/2000/svg" width="394" height="225" fill="none" viewBox="0 0 394 225">
  <path fill="#DCEEFF" d="M0 0h394v225H0z"/>
  <g filter="url(#filter0_d_794_5300)">
    <path fill="#FAF9F9" d="M52 26h290v173H52z"/>
    <path fill="#fff" d="M52 26h290v40H52z"/>
    <rect width="63" height="6" x="223" y="43" fill="#EBEBEB" rx="3"/>
    <rect width="40" height="6" x="294" y="43" fill="#EBEBEB" rx="3"/>
    <g clip-path="url(#clip0_794_5300)">
      <path fill="#999" d="m80.94 48.57-1.83-1.06c.19-1 .19-2.02 0-3.02l1.83-1.06c.21-.12.3-.36.24-.6a10.7 10.7 0 0 0-2.35-4.06.52.52 0 0 0-.64-.1l-1.83 1.06a8.1 8.1 0 0 0-2.61-1.51V36.1a.51.51 0 0 0-.4-.5 10.8 10.8 0 0 0-4.7 0 .51.51 0 0 0-.4.5v2.11c-.95.34-1.84.85-2.61 1.51l-1.83-1.06a.51.51 0 0 0-.63.1 10.64 10.64 0 0 0-2.35 4.07.5.5 0 0 0 .23.6l1.83 1.06c-.18 1-.18 2.02 0 3.01l-1.83 1.06a.52.52 0 0 0-.23.6 10.7 10.7 0 0 0 2.35 4.07c.16.17.43.22.63.1l1.83-1.06a8.11 8.11 0 0 0 2.61 1.5v2.12c0 .24.17.45.4.5 1.59.36 3.2.34 4.7 0a.5.5 0 0 0 .4-.5v-2.11a8.37 8.37 0 0 0 2.62-1.51l1.83 1.05c.2.13.47.09.63-.1a10.64 10.64 0 0 0 2.35-4.06.53.53 0 0 0-.24-.6Zm-9.94.87a3.44 3.44 0 1 1 0-6.89 3.44 3.44 0 0 1 0 6.89Z"/>
    </g>
    <rect width="40" height="4" x="117" y="98" fill="#999" rx="2"/>
    <path fill="#fff" stroke="#999" d="M181.5 92.5h95v15h-95z"/>
    <rect width="32" height="4" x="117" y="126" fill="#999" rx="2"/>
    <path fill="#fff" stroke="#999" d="M181.5 120.5h43v15h-43zm52 0h43v15h-43z"/>
    <rect width="40" height="4" x="117" y="156" fill="#999" rx="2"/>
    <rect width="22" height="11" x="181.5" y="152.5" fill="#fff" stroke="#999" rx="5.5"/>
    <rect width="8" height="8" x="193" y="154" fill="#999" rx="4"/>
  </g>
  <defs>
    <clipPath id="clip0_794_5300">
      <path fill="#fff" d="M60 35h22v22H60z"/>
    </clipPath>
    <filter id="filter0_d_794_5300" width="322" height="205" x="36" y="18" color-interpolation-filters="sRGB" filterUnits="userSpaceOnUse">
      <feFlood flood-opacity="0" result="BackgroundImageFix"/>
      <feColorMatrix in="SourceAlpha" result="hardAlpha" values="0 0 0 0 0 0 0 0 0 0 0 0 0 0 0 0 0 0 127 0"/>
      <feOffset dy="8"/>
      <feGaussianBlur stdDeviation="8"/>
      <feComposite in2="hardAlpha" operator="out"/>
      <feColorMatrix values="0 0 0 0 0.0777057 0 0 0 0 0.181831 0 0 0 0 0.304065 0 0 0 0.1 0"/>
      <feBlend in2="BackgroundImageFix" result="effect1_dropShadow_794_5300"/>
      <feBlend in="SourceGraphic" in2="effect1_dropShadow_794_5300" result="shape"/>
    </filter>
  </defs>
</svg>
