<svg xmlns="http://www.w3.org/2000/svg" width="394" height="136" fill="none" viewBox="0 0 394 136">
  <g clip-path="url(#clip0_799_5129)">
    <path fill="#DCEEFF" d="M0 0h394v136H0z"/>
    <g filter="url(#filter0_d_799_5129)">
      <rect width="262" height="145" x="66" y="16" fill="url(#paint0_linear_799_5129)" rx="8"/>
      <path fill="#EBEBEB" d="M115 76h78v27h-78z"/>
      <rect width="78" height="4" x="201" y="79.5" fill="#EBEBEB" rx="2"/>
      <rect width="78" height="4" x="201" y="87.5" fill="#EBEBEB" rx="2"/>
      <rect width="46" height="4" x="201" y="95.5" fill="#EBEBEB" rx="2"/>
      <rect width="78" height="4" x="115" y="122.5" fill="#EBEBEB" rx="2"/>
      <rect width="78" height="4" x="115" y="130.5" fill="#EBEBEB" rx="2"/>
      <path fill="#EBEBEB" d="M201 119h78v27h-78z"/>
      <path fill="#999" d="M66 16h262v8H66z"/>
      <g clip-path="url(#clip1_799_5129)">
        <path fill="#999" d="M208.67 58.75 204 54.08c-.21-.21-.5-.33-.8-.33h-.76a9.75 9.75 0 1 0-1.69 1.69v.76c0 .3.12.59.33.8l4.67 4.67c.44.44 1.16.44 1.6 0l1.32-1.32c.44-.45.44-1.16 0-1.6Zm-13.92-5a6 6 0 1 1 0-12 6 6 0 0 1 0 12Z"/>
      </g>
    </g>
  </g>
  <defs>
    <clipPath id="clip0_799_5129">
      <path fill="#fff" d="M0 0h394v136H0z"/>
    </clipPath>
    <clipPath id="clip1_799_5129">
      <path fill="#fff" d="M185 38h24v24h-24z"/>
    </clipPath>
    <linearGradient id="paint0_linear_799_5129" x1="197" x2="197" y1="55" y2="138" gradientUnits="userSpaceOnUse">
      <stop stop-color="#fff"/>
      <stop offset="1" stop-color="#FAF9F9"/>
    </linearGradient>
    <filter id="filter0_d_799_5129" width="294" height="177" x="50" y="8" color-interpolation-filters="sRGB" filterUnits="userSpaceOnUse">
      <feFlood flood-opacity="0" result="BackgroundImageFix"/>
      <feColorMatrix in="SourceAlpha" result="hardAlpha" values="0 0 0 0 0 0 0 0 0 0 0 0 0 0 0 0 0 0 127 0"/>
      <feOffset dy="8"/>
      <feGaussianBlur stdDeviation="8"/>
      <feComposite in2="hardAlpha" operator="out"/>
      <feColorMatrix values="0 0 0 0 0.0777057 0 0 0 0 0.181831 0 0 0 0 0.304065 0 0 0 0.1 0"/>
      <feBlend in2="BackgroundImageFix" result="effect1_dropShadow_799_5129"/>
      <feBlend in="SourceGraphic" in2="effect1_dropShadow_799_5129" result="shape"/>
    </filter>
  </defs>
</svg>
