<svg width="16" height="16" viewBox="0 0 16 16" fill="none" xmlns="http://www.w3.org/2000/svg">
<path d="M15.3828 14.6152L11.8379 11.0703C11.75 11.0117 11.6621 10.9531 11.5742 10.9531H11.1934C12.1016 9.89844 12.6875 8.49219 12.6875 6.96875C12.6875 3.62891 9.93359 0.875 6.59375 0.875C3.22461 0.875 0.5 3.62891 0.5 6.96875C0.5 10.3379 3.22461 13.0625 6.59375 13.0625C8.11719 13.0625 9.49414 12.5059 10.5781 11.5977V11.9785C10.5781 12.0664 10.6074 12.1543 10.666 12.2422L14.2109 15.7871C14.3574 15.9336 14.5918 15.9336 14.709 15.7871L15.3828 15.1133C15.5293 14.9961 15.5293 14.7617 15.3828 14.6152ZM6.59375 11.6562C3.98633 11.6562 1.90625 9.57617 1.90625 6.96875C1.90625 4.39062 3.98633 2.28125 6.59375 2.28125C9.17188 2.28125 11.2812 4.39062 11.2812 6.96875C11.2812 9.57617 9.17188 11.6562 6.59375 11.6562Z" fill="#555555"/>
</svg>
