<svg width="128" height="25" fill="none" xmlns="http://www.w3.org/2000/svg">
<path d="M26.699 11.578c-.498 3.048-1.115 5.8-1.866 8.26L18.17.812l-2.543.275c-.022.201-.074.647-.156 1.339-.074.691-.156 1.33-.238 1.933-.082.594-.178 1.286-.29 2.081-.111.789-.26 1.703-.453 2.744a56.558 56.558 0 0 1-.744 3.383 61.48 61.48 0 0 1-1.048 3.688 70.671 70.671 0 0 1-1.271 3.658L5.993.745H0l7.36 23.621h3.458c1.613-4.535 3.234-9.517 5.011-13.569l4.87 13.57h3.531c2.796-8.811 5.815-17.592 8.543-23.622H27.86c-.156 3.985-.692 7.978-1.16 10.826v.007ZM48.49 2.084c-.877-.528-1.903-.922-3.078-1.168a18.667 18.667 0 0 0-3.821-.371c-1.04 0-2.335.059-3.896.185a82.048 82.048 0 0 0-4.097.424c.157 2.595.238 6.38.238 11.338 0 4.224-.081 8.179-.238 11.882h5.584a277.266 277.266 0 0 1-.23-9.919 8.309 8.309 0 0 0 1.583.342c.476.09 1.019.134 1.628.134 1.153 0 2.283-.178 3.383-.528a9.266 9.266 0 0 0 2.96-1.539 7.27 7.27 0 0 0 2.044-2.468c.498-.967.744-2.045.744-3.212 0-1.167-.246-2.156-.744-3.011a5.777 5.777 0 0 0-2.067-2.082l.008-.007Zm-3.3 9.055c-.328 1.019-.781 1.8-1.369 2.35a2.969 2.969 0 0 1-2.096.832c-.327 0-.602-.014-.833-.051-.082-.015-.178-.038-.283-.053-.565-.089-1.152-.29-1.65-.49v-1.063c0-3.882.067-7.68.2-11.406.477-.089 1.064-.134 1.763-.134.766 0 1.457.171 2.067.506a4.24 4.24 0 0 1 1.509 1.42c.394.61.692 1.324.9 2.134.2.81.304 1.673.304 2.572 0 1.242-.163 2.372-.49 3.383h-.023ZM61.42 10.79h-8.119v2.238h8.119V10.79ZM86.46 11.54c0-1.761-.29-3.337-.876-4.72a8.958 8.958 0 0 0-2.588-3.487c-1.137-.937-2.55-1.643-4.23-2.12C77.086.739 75.182.5 73.063.5c-1.532 0-3.16.06-4.877.186-1.718.126-3.078.267-4.097.424.156 2.572.238 6.32.238 11.241 0 4.335-.082 8.32-.238 11.948 3.182.134 6.35.2 9.51.2 2.14 0 4.044-.363 5.702-1.1 1.658-.736 3.011-1.717 4.06-2.944a12.179 12.179 0 0 0 2.334-4.163 15.21 15.21 0 0 0 .758-4.759l.008.008Zm-6.326 6.231c-.365 1.465-.855 2.662-1.472 3.591-.618.922-1.368 1.584-2.23 1.978a6.38 6.38 0 0 1-2.655.595c-.766 0-3.71-.075-4.164-.595-.111-2.84-.17-7.085-.17-10.676 0-4.335.066-8.134.2-11.406a26.718 26.718 0 0 1 3.048-.17c2.818 0 4.855.936 6.112 2.81 1.249 1.873 1.88 4.728 1.88 8.565 0 2.074-.178 3.851-.542 5.316l-.007-.008Z" fill="#fff"/><path d="M107.138.745h-5.361c-.565 3.443-2.163 7.636-3.613 9.309L92.602.745h-6.58l8.893 13.272c-1.658.9-6.737 4.416-9.331 10.357H91.1c.484-4.015 3.287-8.617 4.186-9.881l6.082 9.88h6.61l-9.48-13.806c4.944-2.96 7.606-7.502 8.64-9.814V.745ZM126.699 4.165a5.774 5.774 0 0 0-2.067-2.081c-.877-.528-1.903-.922-3.078-1.168a18.667 18.667 0 0 0-3.821-.371c-1.041 0-2.335.059-3.896.185a82.093 82.093 0 0 0-4.097.424c.156 2.595.238 6.38.238 11.338 0 4.224-.082 8.179-.238 11.882h5.584a275.834 275.834 0 0 1-.231-9.919c.818.268 1.584.342 1.584.342.476.09 1.018.134 1.628.134 1.152 0 2.283-.178 3.383-.528a9.259 9.259 0 0 0 2.959-1.539 7.273 7.273 0 0 0 2.045-2.468c.498-.967.743-2.045.743-3.212 0-1.167-.245-2.156-.743-3.011l.007-.008Zm-5.368 6.974c-.327 1.019-.781 1.8-1.368 2.35a2.968 2.968 0 0 1-2.097.832c-.327 0-.602-.014-.832-.051-.082-.015-.179-.038-.283-.053-.565-.089-1.152-.29-1.65-.49v-1.063c0-3.882.066-7.68.2-11.406.476-.089 1.064-.134 1.762-.134.766 0 1.458.171 2.067.506a4.24 4.24 0 0 1 1.51 1.42c.394.61.691 1.324.899 2.134.201.81.305 1.673.305 2.572 0 1.242-.163 2.372-.491 3.383h-.022Z" fill="#fff"/>
</svg>
